<svg width="720" height="720" viewBox="0 0 720 720" xmlns="http://www.w3.org/2000/svg"><path d="M720,720C615.8333333333334,750,105.5,733.5,0,720C-105.5,706.5,57.83333333333333,677.3333333333334,87,639C116.16666666666667,600.6666666666666,144.83333333333334,497.1666666666667,175,490C205.16666666666666,482.8333333333333,237.33333333333334,601.1666666666666,268,596C298.6666666666667,590.8333333333334,329.1666666666667,460.6666666666667,359,459C388.8333333333333,457.3333333333333,417.3333333333333,578,447,586C476.6666666666667,594,507.3333333333333,514.6666666666666,537,507C566.6666666666666,499.3333333333333,594.5,504.5,625,540C655.5,575.5,824.1666666666666,690,720,720C615.8333333333334,750,105.5,733.5,0,720" fill="#feca0f"/></svg>